<svg width="681" height="1123" viewBox="0 0 681 1123" fill="none" xmlns="http://www.w3.org/2000/svg">
<path d="M133 88V10.5C133 4.70101 137.701 0 143.5 0H531C538.18 0 544 5.8203 544 13V88C544 95.1797 549.82 101 557 101H668C675.18 101 681 106.82 681 114V827C681 834.18 675.18 840 668 840H639C631.82 840 626 845.82 626 853V974C626 981.18 620.18 987 613 987H540C532.82 987 527 992.82 527 1000V1110C527 1117.18 521.18 1123 514 1123H184C176.82 1123 171 1117.18 171 1110V1001C171 993.82 165.18 988 158 988H43.5C36.3203 988 30.5 982.18 30.5 975V854C30.5 846.82 24.6797 841 17.5 841H13C5.8203 841 0 835.18 0 828V114C0 106.82 5.8203 101 13 101H120C127.18 101 133 95.1797 133 88Z" fill="#56F09F"/>
</svg>
