<svg width="1373" height="662" viewBox="0 0 1373 662" fill="none" xmlns="http://www.w3.org/2000/svg">
<g clip-path="url(#clip0_244_12)">
<path d="M22.475 125.5H368.5C380.65 125.5 390.5 115.65 390.5 103.5V22C390.5 9.84974 400.35 0 412.5 0H956C968.15 0 978 9.84974 978 22V102.5C978 114.65 987.85 124.5 1000 124.5H1351C1363.15 124.5 1373 134.35 1373 146.5V540.5C1373 552.65 1363.15 562.5 1351 562.5H1050.46C1038.32 562.5 1028.48 572.325 1028.46 584.459V623.5C1028.46 633.993 1019.95 642.5 1009.46 642.5H269C258.507 642.5 250 633.993 250 623.5V584.5C250 572.35 240.15 562.5 228 562.5H22.0254C9.86529 562.5 0.0114922 552.635 0.0254053 540.475L0.475062 147.475C0.488953 135.334 10.3346 125.5 22.475 125.5Z" fill="#56F09F"/>
</g>
<defs>
<clipPath id="clip0_244_12">
<rect width="1373" height="662" fill="white"/>
</clipPath>
</defs>
</svg>
