<svg width="1841" height="786" viewBox="0 0 1841 786" fill="none" xmlns="http://www.w3.org/2000/svg">
<path d="M220.5 0H1687.5C1704.07 0 1717.5 13.4315 1717.5 30V94C1717.5 108.359 1729.14 120 1743.5 120H1812.5C1827.96 120 1840.5 132.536 1840.5 148V579C1840.5 597.778 1825.28 613 1806.5 613H1327.5C1310.93 613 1297.5 626.431 1297.5 643V755C1297.5 772.121 1283.62 786 1266.5 786H26C11.6406 786 0 774.359 0 760V288.5C0 273.036 12.536 260.5 28 260.5H162.5C177.964 260.5 190.5 247.964 190.5 232.5V30C190.5 13.4315 203.931 0 220.5 0Z" fill="#FFFBEC"/>
</svg>
