<svg width="337" height="214" viewBox="0 0 337 214" fill="none" xmlns="http://www.w3.org/2000/svg">
<g clip-path="url(#clip0_584_2429)">
<path d="M337 196V18C337 8.05888 328.941 0 319 0H124C114.059 0 106 8.05888 106 18V78C106 87.9411 97.941 96 88 96H18C8.059 96 0 87.9411 0 78V136C0 126.059 8.059 118 18 118H88C97.941 118 106 126.059 106 136V196C106 205.941 114.059 214 124 214H319C328.941 214 337 205.941 337 196Z" fill="#D4FFE8"/>
</g>
<defs>
<clipPath id="clip0_584_2429">
<rect width="337" height="214" fill="white" transform="matrix(-1 0 0 1 337 0)"/>
</clipPath>
</defs>
</svg>
