<svg width="214" height="287" viewBox="0 0 214 287" fill="none" xmlns="http://www.w3.org/2000/svg">
<g clip-path="url(#clip0_284_19)">
<mask id="mask0_284_19" style="mask-type:alpha" maskUnits="userSpaceOnUse" x="0" y="-50" width="214" height="337">
<path d="M214 -50L214 287L0 287L1.47307e-05 -50L214 -50Z" fill="white"/>
</mask>
<g mask="url(#mask0_284_19)">
<path d="M18 287L196 287C205.941 287 214 278.941 214 269L214 74C214 64.059 205.941 56 196 56L136 56C126.059 56 118 47.941 118 38L118 -32C118 -41.941 126.059 -50 136 -50L78 -50C87.941 -50 96 -41.941 96 -32L96 38C96 47.941 87.941 56 78 56L18 56C8.059 56 -4.98568e-06 64.059 -5.42021e-06 74L-1.39439e-05 269C-1.43785e-05 278.941 8.05899 287 18 287Z" fill="#D4FFE8"/>
</g>
</g>
<g clip-path="url(#clip1_284_19)">
<mask id="mask1_284_19" style="mask-type:alpha" maskUnits="userSpaceOnUse" x="0" y="0" width="214" height="337">
<path d="M214 0L214 337L0 337L1.47307e-05 -9.35424e-06L214 0Z" fill="white"/>
</mask>
<g mask="url(#mask1_284_19)">
<path d="M18 337L196 337C205.941 337 214 328.941 214 319L214 124C214 114.059 205.941 106 196 106L136 106C126.059 106 118 97.941 118 88L118 18C118 8.059 126.059 -3.84403e-06 136 -3.40949e-06L78 -5.94475e-06C87.941 -5.51021e-06 96 8.05899 96 18L96 88C96 97.941 87.941 106 78 106L18 106C8.059 106 -4.98568e-06 114.059 -5.42021e-06 124L-1.39439e-05 319C-1.43785e-05 328.941 8.05899 337 18 337Z" fill="#D4FFE8"/>
</g>
</g>
<defs>
<clipPath id="clip0_284_19">
<rect width="247" height="214" fill="white" transform="translate(214 40) rotate(90)"/>
</clipPath>
<clipPath id="clip1_284_19">
<rect width="40" height="214" fill="white" transform="translate(214) rotate(90)"/>
</clipPath>
</defs>
</svg>
