<svg width="214" height="337" viewBox="0 0 214 337" fill="none" xmlns="http://www.w3.org/2000/svg">
<g clip-path="url(#clip0_33_13)">
<path d="M18 337L196 337C205.941 337 214 328.941 214 319L214 124C214 114.059 205.941 106 196 106L136 106C126.059 106 118 97.941 118 88L118 18C118 8.059 126.059 -3.84403e-06 136 -3.40949e-06L78 -5.94475e-06C87.941 -5.51021e-06 96 8.05899 96 18L96 88C96 97.941 87.941 106 78 106L18 106C8.059 106 -4.98568e-06 114.059 -5.42021e-06 124L-1.39439e-05 319C-1.43785e-05 328.941 8.05899 337 18 337Z" fill="#D4FFE8"/>
</g>
<defs>
<clipPath id="clip0_33_13">
<rect width="337" height="214" fill="white" transform="translate(214) rotate(90)"/>
</clipPath>
</defs>
</svg>
